PathFileType	4	(X/Y/Z)	9_coords_data.trc
DataRate	CameraRate	NumFrames	NumMarkers	Units	OrigDataRate	OrigDataStartFrame	OrigNumFrames
30.0	30.0	6	21	m	30.0	19	47
Frame#	Time	THUMB_TIP	THUMB_IP	THUMB_MCP	THUMB_CMC	INDEX_TIP	INDEX_DIP	INDEX_PIP	INDEX_MCP	MIDDLE_TIP	MIDDLE_DIP	MIDDLE_PIP	MIDDLE_MCP	RING_TIP	RING_DIP	RING_PIP	RING_MCP	PINKY_TIP	PINKY_DIP	PINKY_PIP	PINKY_MCP	WRIST
X1	Y1	Z1	X2	Y2	Z2	X3	Y3	Z3	X4	Y4	Z4	X5	Y5	Z5	X6	Y6	Z6	X7	Y7	Z7	X8	Y8	Z8	X9	Y9	Z9	X10	Y10	Z10	X11	Y11	Z11	X12	Y12	Z12	X13	Y13	Z13	X14	Y14	Z14	X15	Y15	Z15	X16	Y16	Z16	X17	Y17	Z17	X18	Y18	Z18	X19	Y19	Z19	X20	Y20	Z20	X21	Y21	Z21
18	0.6	0.020535200119018555	-0.014899900436401367	1.0190900268554688	0.0171968994140625	-0.011818099975585937	1.04331005859375	0.0076052799224853515	-0.012664799690246581	1.06947998046875	-0.01600790023803711	-0.004074079990386963	1.08772998046875	0.04415129852294922	-0.11536399841308594	1.0166099853515624	0.0341697998046875	-0.10100299835205079	1.03125	0.0233169002532959	-0.08972599792480469	1.045760009765625	0.005639890193939209	-0.060938499450683595	1.0646199951171875	0.014281499862670898	-0.01936599922180176	1.0228499755859375	0.010360400199890136	-0.04018040084838867	1.0242099609375	0.004478419780731201	-0.06732379913330078	1.0233699951171875	-0.019814800262451172	-0.06401010131835938	1.0588199462890624	0.005241499900817871	-0.012764399528503417	1.025260009765625	-0.003289669990539551	-0.028796300888061524	1.0175499877929688	-0.0195177001953125	-0.053215900421142576	1.0158599853515624	-0.038038700103759766	-0.05139759826660156	1.0505400390625	-0.06320199966430665	-0.06643800354003906	0.9866179809570312	-0.0619286994934082	-0.05581829833984375	1.0046099853515624	-0.06004869842529297	-0.04766080093383789	1.0218300170898438	-0.050469799041748045	-0.03135250091552735	1.046699951171875	-0.04496160125732422	-0.009032369613647461	1.115280029296875
19	0.6333333333333333	0.02403700065612793	-0.014651700019836426	1.0198200073242187	0.019219200134277345	-0.01295419979095459	1.043969970703125	0.008585949897766114	-0.014787400245666504	1.069989990234375	-0.015712599754333496	-0.0054274601936340336	1.0878800048828126	0.042410400390625	-0.10688700103759766	1.007010009765625	0.03183009910583496	-0.0968019027709961	1.0244100341796876	0.020573699951171875	-0.08872299957275391	1.041010009765625	0.0042071199417114255	-0.062165000915527346	1.0628800048828124	0.016862899780273437	-0.01886050033569336	1.0226699829101562	0.011189200401306153	-0.03915650177001953	1.0226300048828125	0.0033991200923919667	-0.06631150054931641	1.0203300170898437	-0.020246700286865236	-0.06369319915771485	1.055949951171875	0.007813079833984375	-0.011402099609375	1.0230599975585937	-0.00197854995727539	-0.027642099380493165	1.0153300170898438	-0.01945210075378418	-0.051062301635742186	1.0133200073242188	-0.038638999938964844	-0.04949850082397461	1.04831005859375	-0.05434830093383789	-0.05332870101928711	0.9795540161132813	-0.05653030014038086	-0.04652790069580078	0.9986680297851562	-0.057312698364257814	-0.041383998870849606	1.017030029296875	-0.05090610122680664	-0.029058799743652344	1.0451600341796874	-0.0459208984375	-0.01013070011138916	1.1158599853515625
20	0.6666666666666666	0.029006399154663087	-0.013326899528503418	1.0211300048828125	0.02190169906616211	-0.01422439956665039	1.0451500244140626	0.009451399803161621	-0.016558900833129882	1.070280029296875	-0.014951999664306641	-0.0071659798622131345	1.0875999755859376	0.037839599609375	-0.09340260314941407	0.9942960205078125	0.026921499252319337	-0.0889209976196289	1.013489990234375	0.01540999984741211	-0.08494670104980469	1.031530029296875	0.00017072799801826403	-0.06291410064697266	1.057550048828125	0.020422500610351564	-0.01596749973297119	1.0185700073242188	0.011987500190734864	-0.03591600036621094	1.0171599731445313	0.00042703399062156606	-0.06144670104980469	1.0141400146484374	-0.02257430076599121	-0.0609281005859375	1.0494599609375	0.011138899803161621	-0.007587399959564209	1.017030029296875	-0.00125311005115509	-0.023362300872802735	1.0099299926757812	-0.02112220001220703	-0.04503219985961914	1.00852001953125	-0.04006760025024414	-0.04426869964599609	1.0428800048828124	-0.04307210159301758	-0.032068401336669924	0.9745700073242187	-0.04949539947509766	-0.03025589942932129	0.992969970703125	-0.05400960159301758	-0.02937269973754883	1.0116699829101563	-0.05205110168457031	-0.023233600616455078	1.042	-0.04640650177001953	-0.010953800201416015	1.11556005859375
21	0.7	0.03416400146484375	-0.009989649772644042	1.0220999755859375	0.023543899536132812	-0.013975000381469727	1.0457099609375	0.009629670143127442	-0.01881760025024414	1.0693399658203124	-0.015099499702453613	-0.008404840469360351	1.0864599609375	0.033194801330566404	-0.07430860137939453	0.9821300048828125	0.021448999404907226	-0.07589600372314453	1.00077001953125	0.00924662971496582	-0.07671340179443359	1.019	-0.00541142988204956	-0.06081510162353516	1.049760009765625	0.024355600357055664	-0.010479700088500977	1.0138499755859376	0.01253380012512207	-0.02893939971923828	1.010260009765625	-0.003524219989776611	-0.05205759811401367	1.0058400268554688	-0.026695699691772462	-0.05440299987792969	1.04072998046875	0.01589360046386719	0.000496879994869232	1.0110900268554688	0.00018607899546623202	-0.013373299598693848	1.0048099975585938	-0.022620800018310547	-0.032319599151611325	1.0026400146484375	-0.041480098724365234	-0.03568289947509766	1.03506005859375	-0.030581600189208986	-0.007052879810333252	0.9756110229492188	-0.04142530059814453	-0.009500630378723144	0.9909819946289062	-0.05022549819946289	-0.012795999526977539	1.008	-0.05310689926147461	-0.013278200149536132	1.0391500244140626	-0.04763100051879883	-0.011692299842834472	1.1141500244140625
22	0.7333333333333333	0.0404286994934082	-0.008614879608154297	1.025010009765625	0.024949199676513673	-0.014511699676513673	1.0473299560546876	0.00883922004699707	-0.02096120071411133	1.0693900146484374	-0.01584109973907471	-0.009854260444641114	1.086719970703125	0.03128210067749024	-0.05319670104980469	0.9744340209960938	0.017886199951171876	-0.05922589874267578	0.9905050048828125	0.003956379890441894	-0.06405989837646485	1.0074099731445312	-0.011434599876403809	-0.05603079986572266	1.0418299560546875	0.02988680076599121	-0.004508090019226074	1.00525	0.014297699928283692	-0.020426399230957033	1.0013699951171875	-0.006965310096740723	-0.03929629898071289	0.9975830078125	-0.03076140022277832	-0.04456790161132813	1.0324599609375	0.021094499588012697	0.009619500160217285	1.0059199829101562	0.002538360118865967	-0.001295060038566589	1.0001099853515625	-0.022760000228881836	-0.01661149978637695	0.9985819702148437	-0.0430458984375	-0.023570600509643554	1.0298599853515624	-0.019249000549316407	0.015312700271606446	0.981405029296875	-0.033022899627685544	0.010992799758911133	0.9935819702148437	-0.04511780166625977	0.0053004598617553715	1.0078699951171874	-0.05219250106811523	-0.0012578999996185301	1.03606005859375	-0.04942459869384765	-0.012281999588012696	1.1119200439453125
23	0.7666666666666667	0.04528089904785156	-0.010622699737548829	1.02843994140625	0.026886999130249025	-0.016226699829101562	1.048699951171875	0.007961190223693848	-0.023031700134277345	1.0688800048828124	-0.0162406005859375	-0.010422800064086914	1.084760009765625	0.031333599090576175	-0.03866910171508789	0.9711069946289063	0.01611039924621582	-0.046097698211669924	0.9847880249023437	3.6330301314592004e-05	-0.052668201446533204	0.9997470092773437	-0.016870399475097657	-0.049607498168945316	1.0351199951171874	0.0357041015625	9.6224300563335e-05	0.9926079711914062	0.016676000595092774	-0.012243700027465821	0.9913909912109375	-0.009124139785766601	-0.026531999588012695	0.9918889770507813	-0.03341120147705078	-0.03358729934692383	1.026989990234375	0.027133100509643553	0.018040300369262696	0.9973170166015625	0.006263519763946533	0.009993080139160157	0.9954310302734375	-0.020795000076293944	-0.0018760800361633302	0.9969169921875	-0.04277370071411133	-0.011447600364685059	1.0272900390625	-0.008612810134887695	0.031744199752807616	0.98956298828125	-0.0243843994140625	0.027300600051879884	0.9992490234375	-0.038991100311279295	0.02085689926147461	1.0108599853515625	-0.04933150100708008	0.01062969970703125	1.0360699462890626	-0.05099150085449219	-0.01142990016937256	1.1095899658203126
